<svg width="1026" height="1026" viewBox="0 0 1026 1026" fill="none" xmlns="http://www.w3.org/2000/svg">
<g clip-path="url(#clip0_104_367)">
<g opacity="0.12">
<path d="M420.455 513.29C420.455 469.304 461.812 433.646 512.833 433.646C563.846 433.646 605.211 469.303 605.211 513.29C605.211 557.27 563.846 592.934 512.833 592.934C461.812 592.933 420.455 557.27 420.455 513.29Z" stroke="black" stroke-width="8" stroke-miterlimit="10"/>
<path d="M-0.121094 513.294C-0.121094 229.996 229.525 0.335449 512.833 0.335449C796.097 0.335449 1025.79 229.989 1025.79 513.294C1025.79 796.553 796.097 1026.25 512.833 1026.25C229.525 1026.24 -0.121094 796.553 -0.121094 513.294Z" stroke="#E6E3E3" stroke-width="0.5" stroke-miterlimit="10"/>
<path d="M512.833 413.013C450.751 413.013 400.428 457.909 400.428 513.291C400.428 568.665 450.751 613.566 512.833 613.567C574.906 613.567 625.239 568.665 625.239 513.291C625.239 457.908 574.906 413.013 512.833 413.013Z" stroke="#0B0B0B" stroke-width="7.64286"/>
<path d="M512.833 392.379C439.69 392.379 380.4 446.513 380.4 513.291C380.4 580.059 439.69 634.2 512.833 634.201C585.965 634.201 645.266 580.059 645.266 513.291C645.266 446.512 585.965 392.379 512.833 392.379Z" stroke="#161616" stroke-width="7.28571"/>
<path d="M512.833 371.745C428.629 371.745 360.373 435.118 360.373 513.291C360.373 591.454 428.629 654.833 512.833 654.835C597.025 654.835 665.294 591.454 665.294 513.291C665.294 435.116 597.025 371.745 512.833 371.745Z" stroke="#212020" stroke-width="6.92857"/>
<path d="M512.833 351.111C417.567 351.111 340.346 423.722 340.346 513.291C340.346 602.848 417.567 675.467 512.833 675.469C608.085 675.469 685.321 602.848 685.321 513.291C685.321 423.72 608.085 351.111 512.833 351.111Z" stroke="#2C2B2B" stroke-width="6.57143"/>
<path d="M512.834 330.477C406.506 330.477 320.318 412.326 320.318 513.291C320.318 614.243 406.506 696.101 512.834 696.103C619.144 696.103 705.349 614.243 705.349 513.291C705.349 412.324 619.144 330.477 512.834 330.477Z" stroke="#373636" stroke-width="6.21429"/>
<path d="M512.834 309.843C395.445 309.843 300.291 400.931 300.291 513.291C300.291 625.637 395.445 716.734 512.834 716.737C630.204 716.737 725.376 625.637 725.376 513.291C725.376 400.928 630.204 309.843 512.834 309.843Z" stroke="#424141" stroke-width="5.85714"/>
<path d="M512.834 289.209C384.384 289.209 280.264 389.535 280.264 513.292C280.264 637.031 384.384 737.368 512.834 737.371C641.264 737.371 745.404 637.031 745.404 513.292C745.404 389.532 641.264 289.209 512.834 289.209Z" stroke="#4D4C4C" stroke-width="5.5"/>
<path d="M512.834 268.576C373.323 268.576 260.236 378.139 260.236 513.292C260.236 648.426 373.323 758.002 512.834 758.005C652.323 758.005 765.431 648.426 765.431 513.292C765.431 378.136 652.323 268.576 512.834 268.576Z" stroke="#585757" stroke-width="5.14286"/>
<path d="M512.834 247.942C362.261 247.942 240.209 366.744 240.209 513.292C240.209 659.82 362.261 778.635 512.834 778.639C663.383 778.639 785.459 659.82 785.459 513.292C785.459 366.74 663.383 247.942 512.834 247.942Z" stroke="#636161" stroke-width="4.78571"/>
<path d="M512.834 227.308C351.2 227.308 220.182 355.348 220.182 513.292C220.182 671.214 351.2 799.269 512.834 799.273C674.443 799.273 805.486 671.214 805.486 513.292C805.486 355.344 674.443 227.308 512.834 227.308Z" stroke="#6E6C6C" stroke-width="4.42857"/>
<path d="M512.833 206.674C340.138 206.674 200.153 343.952 200.153 513.292C200.153 682.609 340.138 819.903 512.833 819.906C685.501 819.906 825.513 682.609 825.513 513.292C825.513 343.949 685.501 206.674 512.833 206.674Z" stroke="#797777" stroke-width="4.07143"/>
<path d="M512.833 186.04C329.077 186.04 180.126 332.557 180.126 513.292C180.126 694.003 329.077 840.536 512.833 840.54C696.561 840.54 845.54 694.003 845.54 513.292C845.54 332.553 696.561 186.04 512.833 186.04Z" stroke="#848282" stroke-width="3.71429"/>
<path d="M512.833 165.406C318.016 165.406 160.099 321.161 160.099 513.292C160.099 705.398 318.016 861.17 512.833 861.174C707.621 861.174 865.568 705.398 865.568 513.292C865.568 321.157 707.621 165.406 512.833 165.406Z" stroke="#8F8D8D" stroke-width="3.35714"/>
<path d="M512.833 144.772C306.954 144.772 140.071 309.765 140.071 513.293C140.071 716.792 306.954 881.804 512.833 881.808C718.68 881.808 885.596 716.792 885.596 513.293C885.596 309.761 718.68 144.772 512.833 144.772Z" stroke="#999898" stroke-width="3"/>
<path d="M512.834 124.139C295.893 124.139 120.044 298.37 120.044 513.293C120.044 728.186 295.893 902.437 512.834 902.442C729.74 902.442 905.623 728.186 905.623 513.293C905.623 298.365 729.74 124.139 512.834 124.139Z" stroke="#A4A2A2" stroke-width="2.64286"/>
<path d="M512.834 103.505C284.832 103.505 100.017 286.974 100.017 513.293C100.017 739.581 284.832 923.071 512.834 923.076C740.799 923.076 925.651 739.581 925.651 513.293C925.651 286.969 740.799 103.505 512.834 103.505Z" stroke="#AFADAD" stroke-width="2.28571"/>
<path d="M512.834 82.8708C273.771 82.8708 79.9893 275.578 79.9893 513.293C79.9893 750.975 273.771 943.704 512.834 943.71C751.859 943.71 945.678 750.975 945.678 513.293C945.678 275.573 751.859 82.8708 512.834 82.8708Z" stroke="#BAB8B8" stroke-width="1.92857"/>
<path d="M512.834 62.2371C262.71 62.2371 59.9619 264.183 59.9619 513.293C59.9619 762.37 262.71 964.338 512.834 964.344C762.919 964.344 965.706 762.37 965.706 513.293C965.706 264.177 762.919 62.2371 512.834 62.2371Z" stroke="#C5C3C3" stroke-width="1.57143"/>
<path d="M512.834 41.6031C251.648 41.6031 39.9346 252.787 39.9346 513.293C39.9346 773.764 251.648 984.972 512.834 984.978C773.978 984.978 985.733 773.764 985.733 513.293C985.733 252.781 773.978 41.6031 512.834 41.6031Z" stroke="#D0CECE" stroke-width="1.21429"/>
<path d="M512.834 20.9694C240.587 20.9694 19.9072 241.392 19.9072 513.294C19.9072 785.159 240.587 1005.61 512.834 1005.61C785.038 1005.61 1005.76 785.159 1005.76 513.294C1005.76 241.385 785.038 20.9694 512.834 20.9694Z" stroke="#DBD9D9" stroke-width="0.857143"/>
</g>
<g opacity="0.35">
<path d="M452.221 507.953C452.054 508.809 451.857 509.503 451.632 510.031C451.41 510.56 451.113 510.951 450.741 511.202C450.369 511.449 449.878 511.579 449.268 511.59C448.658 511.598 447.883 511.51 446.944 511.327L446.716 511.283C445.94 511.131 445.297 510.967 444.787 510.788C444.273 510.609 443.869 510.395 443.574 510.143C443.278 509.892 443.076 509.591 442.962 509.236C442.851 508.879 442.811 508.45 442.845 507.952C442.875 507.452 442.956 506.86 443.09 506.175L443.538 503.876C443.672 503.191 443.818 502.611 443.977 502.136C444.132 501.662 444.329 501.281 444.566 500.995C444.804 500.706 445.107 500.501 445.474 500.379C445.841 500.257 446.297 500.208 446.84 500.236C447.38 500.261 448.038 500.351 448.814 500.502L449.042 500.546C449.982 500.729 450.733 500.94 451.293 501.18C451.855 501.415 452.262 501.72 452.514 502.092C452.766 502.46 452.895 502.931 452.902 503.506C452.912 504.08 452.834 504.796 452.668 505.652L452.221 507.953ZM451.273 507.77L451.72 505.47C451.826 504.926 451.897 504.464 451.931 504.083C451.965 503.702 451.942 503.384 451.863 503.128C451.782 502.867 451.627 502.652 451.397 502.481C451.167 502.305 450.843 502.154 450.425 502.025C450.007 501.896 449.476 501.769 448.829 501.643L448.602 501.598C447.932 501.468 447.376 501.383 446.933 501.344C446.49 501.306 446.131 501.324 445.856 501.402C445.582 501.474 445.364 501.618 445.204 501.831C445.041 502.04 444.907 502.328 444.805 502.696C444.698 503.061 444.591 503.517 444.485 504.061L444.038 506.361C443.933 506.905 443.86 507.366 443.821 507.746C443.779 508.125 443.794 508.444 443.866 508.702C443.935 508.957 444.084 509.17 444.31 509.345C444.537 509.516 444.863 509.665 445.288 509.796C445.712 509.926 446.26 510.057 446.929 510.186L447.158 510.231C447.804 510.357 448.346 510.439 448.781 510.476C449.214 510.513 449.572 510.496 449.851 510.424C450.13 510.347 450.355 510.205 450.526 509.998C450.698 509.787 450.838 509.498 450.95 509.132C451.058 508.768 451.167 508.313 451.273 507.77Z" fill="#312C2B"/>
<path d="M455.473 494.126L447.798 489.56L452.1 482.325L452.9 482.8L449.167 489.077L451.725 490.598L455.289 484.606L456.089 485.082L452.525 491.074L456.042 493.166L455.473 494.126Z" fill="#312C2B"/>
<path d="M463.75 481.039L457.666 474.502L463.829 468.766L464.463 469.448L459.116 474.422L461.145 476.602L466.248 471.853L466.881 472.534L461.778 477.282L464.566 480.279L463.75 481.039Z" fill="#312C2B"/>
<path d="M475.365 471.069L470.672 463.473L471.621 462.886L476.314 470.484L475.365 471.069Z" fill="#312C2B"/>
<path d="M480.347 462.631L480.267 462.412C479.997 461.669 479.807 461.034 479.696 460.504C479.585 459.971 479.561 459.514 479.625 459.132C479.687 458.75 479.842 458.421 480.087 458.142C480.335 457.861 480.682 457.607 481.127 457.38C481.57 457.148 482.119 456.913 482.776 456.674L484.977 455.872C485.728 455.6 486.372 455.406 486.913 455.291C487.456 455.172 487.922 455.161 488.311 455.258C488.704 455.351 489.046 455.575 489.336 455.931C489.626 456.283 489.892 456.795 490.136 457.465L489.087 457.847C488.895 457.319 488.698 456.927 488.497 456.67C488.296 456.408 488.058 456.254 487.785 456.205C487.515 456.155 487.182 456.186 486.785 456.298C486.387 456.405 485.894 456.566 485.309 456.779L483.107 457.581C482.586 457.77 482.153 457.947 481.808 458.11C481.462 458.269 481.196 458.446 481.011 458.641C480.829 458.831 480.721 459.067 480.689 459.351C480.66 459.635 480.699 459.991 480.806 460.422C480.914 460.853 481.085 461.389 481.317 462.03L481.397 462.249C481.622 462.869 481.83 463.374 482.023 463.766C482.214 464.157 482.413 464.454 482.619 464.655C482.828 464.856 483.065 464.975 483.331 465.015C483.6 465.053 483.919 465.026 484.291 464.932C484.66 464.838 485.106 464.697 485.627 464.507L487.828 463.706C488.415 463.493 488.897 463.303 489.273 463.137C489.65 462.971 489.927 462.786 490.104 462.581C490.285 462.375 490.369 462.112 490.36 461.79C490.348 461.463 490.248 461.038 490.057 460.514L491.106 460.132C491.351 460.802 491.474 461.364 491.478 461.816C491.481 462.268 491.362 462.654 491.12 462.972C490.879 463.287 490.513 463.571 490.019 463.825C489.529 464.078 488.909 464.339 488.159 464.613L485.957 465.414C485.137 465.712 484.443 465.901 483.875 465.981C483.307 466.063 482.819 466.01 482.411 465.82C482.008 465.629 481.644 465.275 481.319 464.757C480.997 464.24 480.674 463.531 480.347 462.631Z" fill="#312C2B"/>
<path d="M499.297 460.878L498.416 451.992L507.141 451.126L507.232 452.052L499.618 452.806L499.913 455.769L507.207 455.046L507.3 455.972L500.005 456.695L500.317 459.842L508.092 459.071L508.185 459.997L499.297 460.878Z" fill="#312C2B"/>
<path d="M526.894 461.403C526.052 461.179 525.375 460.936 524.862 460.674C524.351 460.416 523.981 460.093 523.755 459.704C523.533 459.316 523.439 458.817 523.469 458.207C523.503 457.599 523.644 456.832 523.891 455.908L523.951 455.683C524.155 454.919 524.363 454.289 524.576 453.792C524.791 453.291 525.033 452.903 525.304 452.627C525.573 452.35 525.889 452.167 526.251 452.079C526.614 451.992 527.045 451.982 527.54 452.051C528.037 452.115 528.621 452.237 529.295 452.418L531.559 453.023C532.233 453.203 532.802 453.388 533.264 453.58C533.727 453.767 534.093 453.99 534.362 454.247C534.635 454.504 534.819 454.82 534.915 455.195C535.011 455.57 535.026 456.027 534.963 456.568C534.9 457.105 534.767 457.756 534.563 458.52L534.503 458.744C534.256 459.668 533.995 460.403 533.716 460.946C533.442 461.491 533.111 461.876 532.721 462.1C532.337 462.326 531.857 462.423 531.285 462.391C530.71 462.362 530.003 462.235 529.16 462.009L526.894 461.403ZM527.144 460.471L529.407 461.075C529.943 461.218 530.399 461.32 530.776 461.381C531.153 461.441 531.472 461.441 531.734 461.378C531.998 461.317 532.225 461.176 532.412 460.956C532.601 460.738 532.776 460.426 532.933 460.018C533.089 459.611 533.252 459.089 533.424 458.453L533.483 458.229C533.66 457.569 533.783 457.021 533.851 456.582C533.92 456.142 533.926 455.784 533.87 455.504C533.815 455.224 533.688 454.997 533.486 454.823C533.288 454.646 533.01 454.493 532.651 454.365C532.294 454.233 531.848 454.097 531.31 453.953L529.048 453.348C528.512 453.206 528.057 453.101 527.68 453.037C527.306 452.97 526.986 452.962 526.724 453.017C526.464 453.068 526.241 453.201 526.052 453.415C525.866 453.63 525.693 453.946 525.534 454.36C525.376 454.775 525.209 455.312 525.032 455.971L524.972 456.196C524.802 456.832 524.684 457.366 524.617 457.797C524.55 458.229 524.543 458.585 524.596 458.869C524.653 459.152 524.778 459.386 524.974 459.571C525.174 459.757 525.451 459.917 525.808 460.052C526.163 460.189 526.608 460.328 527.144 460.471Z" fill="#312C2B"/>
<path d="M540.411 465.315L544.834 457.557L552.148 461.727L551.686 462.534L545.343 458.918L543.868 461.505L549.925 464.957L549.464 465.765L543.408 462.312L541.381 465.868L540.411 465.315Z" fill="#312C2B"/>
<path d="M559.389 478.771L566.118 472.901L566.852 473.741L560.123 479.612L559.389 478.771Z" fill="#312C2B"/>
<path d="M565.07 484.774L573.056 480.777L576.023 486.704C576.413 487.484 576.688 488.148 576.846 488.698C577.003 489.247 577.018 489.73 576.888 490.146C576.763 490.565 576.471 490.956 576.015 491.325C575.559 491.696 574.911 492.092 574.068 492.514L573.86 492.617C573.044 493.025 572.352 493.301 571.782 493.443C571.217 493.587 570.724 493.586 570.306 493.441C569.891 493.298 569.507 493 569.151 492.549C568.799 492.098 568.429 491.481 568.039 490.701L565.07 484.774ZM566.433 485.34L568.9 490.269C569.21 490.889 569.488 491.374 569.737 491.722C569.986 492.07 570.257 492.294 570.555 492.392C570.85 492.491 571.219 492.474 571.659 492.339C572.099 492.205 572.666 491.965 573.359 491.619L573.568 491.515C574.144 491.227 574.607 490.969 574.962 490.739C575.315 490.51 575.571 490.285 575.729 490.064C575.892 489.842 575.969 489.6 575.962 489.335C575.961 489.073 575.888 488.763 575.745 488.41C575.604 488.057 575.408 487.631 575.16 487.137L572.692 482.208L566.433 485.34Z" fill="#312C2B"/>
<path d="M572.746 501.684L581.627 500.742L582.55 509.461L581.625 509.559L580.819 501.95L577.858 502.264L578.631 509.554L577.706 509.653L576.933 502.362L573.788 502.696L574.611 510.466L573.686 510.564L572.746 501.684Z" fill="#312C2B"/>
<path d="M574.217 517.716L582.833 520.065L582.527 521.187L572.881 527.855L572.878 527.866L580.165 529.853L579.871 530.929L571.255 528.58L571.561 527.458L581.269 520.808L581.272 520.796L573.924 518.793L574.217 517.716Z" fill="#312C2B"/>
<path d="M566.092 539.281L572.573 543.972L575.19 540.356L575.944 540.901L570.053 549.039L569.3 548.494L571.918 544.878L565.437 540.188L566.092 539.281Z" fill="#312C2B"/>
<path d="M558.074 549.045L563.976 555.746L563.139 556.484L557.236 549.783L558.074 549.045Z" fill="#312C2B"/>
<path d="M552.053 554.472L556.553 562.185L549.281 566.428L548.814 565.624L555.121 561.945L553.621 559.374L547.6 562.885L547.131 562.084L553.152 558.571L551.09 555.035L552.053 554.472Z" fill="#312C2B"/>
<path d="M538.575 561.68L541.602 570.082L540.552 570.46L537.524 562.058L538.575 561.68Z" fill="#312C2B"/>
<path d="M532.04 568.885L532.075 569.114C532.195 569.896 532.258 570.556 532.262 571.097C532.266 571.642 532.201 572.094 532.065 572.456C531.928 572.818 531.712 573.113 531.417 573.337C531.119 573.563 530.729 573.745 530.248 573.882C529.768 574.023 529.183 574.145 528.493 574.252L526.176 574.608C525.388 574.729 524.717 574.791 524.165 574.798C523.61 574.809 523.15 574.729 522.787 574.556C522.42 574.388 522.129 574.102 521.914 573.696C521.699 573.294 521.538 572.74 521.43 572.035L522.534 571.866C522.619 572.421 522.735 572.844 522.881 573.136C523.028 573.431 523.231 573.629 523.49 573.73C523.746 573.832 524.077 573.868 524.488 573.836C524.899 573.809 525.413 573.746 526.031 573.653L528.347 573.297C528.895 573.212 529.354 573.125 529.724 573.034C530.095 572.946 530.39 572.823 530.609 572.669C530.825 572.517 530.977 572.306 531.064 572.034C531.149 571.762 531.18 571.404 531.159 570.96C531.139 570.517 531.075 569.959 530.973 569.284L530.937 569.053C530.837 568.403 530.732 567.866 530.62 567.444C530.508 567.022 530.371 566.693 530.209 566.454C530.043 566.217 529.834 566.053 529.581 565.963C529.324 565.872 529.005 565.836 528.624 565.856C528.242 565.875 527.779 565.927 527.23 566.011L524.914 566.367C524.296 566.461 523.787 566.552 523.386 566.641C522.984 566.731 522.676 566.859 522.462 567.025C522.245 567.192 522.11 567.434 522.057 567.752C522.003 568.074 522.02 568.51 522.104 569.062L521.001 569.233C520.893 568.527 520.881 567.953 520.966 567.509C521.05 567.064 521.243 566.709 521.544 566.443C521.842 566.182 522.256 565.975 522.79 565.822C523.319 565.67 523.979 565.534 524.768 565.413L527.085 565.057C527.946 564.925 528.664 564.876 529.238 564.91C529.811 564.939 530.279 565.088 530.642 565.354C530.999 565.619 531.287 566.037 531.504 566.609C531.716 567.179 531.895 567.938 532.04 568.885Z" fill="#312C2B"/>
<path d="M513.82 567.131L507.686 575.454L506.206 575.295L501.981 565.859L503.277 565.999L504.168 568.153L511.196 568.909L512.526 566.992L513.82 567.131ZM510.542 569.772L504.623 569.136L507.027 574.633L510.542 569.772Z" fill="#312C2B"/>
<path d="M491.336 563.286L488.477 570.757L492.648 572.353L492.315 573.222L482.933 569.632L483.265 568.763L487.436 570.359L490.295 562.887L491.336 563.286Z" fill="#312C2B"/>
<path d="M479.812 558.193L475.078 565.766L474.131 565.174L478.865 557.603L479.812 558.193Z" fill="#312C2B"/>
<path d="M470.043 551.182C470.664 551.794 471.132 552.34 471.447 552.82C471.765 553.298 471.926 553.762 471.929 554.212C471.929 554.658 471.765 555.139 471.436 555.653C471.106 556.165 470.605 556.762 469.931 557.444L469.767 557.609C469.212 558.172 468.719 558.617 468.288 558.942C467.855 559.272 467.452 559.488 467.079 559.596C466.707 559.703 466.343 559.704 465.986 559.603C465.626 559.499 465.247 559.294 464.852 558.99C464.452 558.687 464.004 558.292 463.507 557.801L461.839 556.156C461.343 555.666 460.941 555.222 460.634 554.828C460.326 554.434 460.118 554.061 460.011 553.705C459.901 553.347 459.898 552.981 459.999 552.608C460.101 552.234 460.313 551.828 460.637 551.39C460.957 550.956 461.394 550.457 461.951 549.894L462.114 549.728C462.786 549.047 463.378 548.538 463.888 548.204C464.395 547.866 464.875 547.696 465.323 547.694C465.77 547.688 466.233 547.841 466.716 548.154C467.2 548.462 467.752 548.924 468.374 549.537L470.043 551.182ZM469.365 551.869L467.697 550.223C467.302 549.833 466.956 549.519 466.66 549.28C466.361 549.04 466.084 548.883 465.826 548.808C465.565 548.731 465.298 548.741 465.029 548.838C464.756 548.933 464.449 549.119 464.112 549.394C463.774 549.67 463.373 550.044 462.911 550.512L462.747 550.678C462.268 551.162 461.889 551.58 461.613 551.926C461.335 552.273 461.152 552.583 461.064 552.854C460.972 553.124 460.971 553.384 461.06 553.635C461.144 553.888 461.31 554.157 461.559 554.447C461.805 554.739 462.125 555.079 462.52 555.469L464.187 557.115C464.581 557.504 464.926 557.82 465.22 558.062C465.513 558.306 465.786 558.471 466.042 558.555C466.292 558.638 466.552 558.633 466.824 558.541C467.091 558.446 467.397 558.258 467.741 557.976C468.084 557.694 468.495 557.31 468.975 556.824L469.138 556.658C469.601 556.191 469.968 555.786 470.24 555.443C470.511 555.101 470.695 554.795 470.789 554.523C470.88 554.249 470.888 553.982 470.808 553.726C470.728 553.465 470.566 553.188 470.322 552.895C470.078 552.6 469.76 552.257 469.365 551.869Z" fill="#312C2B"/>
<path d="M459.953 541.022L451.868 544.815L451.375 543.762L454.403 532.433L454.397 532.422L447.559 535.63L447.086 534.619L455.171 530.827L455.664 531.879L452.579 543.236L452.584 543.246L459.479 540.012L459.953 541.022Z" fill="#312C2B"/>
<path d="M512.737 469.082C541.52 469.082 563.932 489.36 563.932 513.312C563.932 537.263 541.521 557.541 512.737 557.541C483.955 557.541 461.543 537.263 461.543 513.312C461.543 489.36 483.954 469.082 512.737 469.082Z" stroke="#312C2B" stroke-width="7.75586"/>
<path d="M512.738 488.205C531.743 488.205 545.845 500.083 545.845 513.312C545.845 526.54 531.743 538.418 512.738 538.418C493.732 538.418 479.632 526.54 479.632 513.312C479.631 500.084 493.731 488.205 512.738 488.205Z" stroke="#312C2B" stroke-width="5.8169"/>
<path d="M512.739 523.226V539.258" stroke="#312C2B" stroke-width="3.87793"/>
<path d="M512.739 519.197C515.989 519.197 518.623 516.562 518.623 513.313C518.623 510.063 515.989 507.429 512.739 507.429C509.49 507.429 506.855 510.063 506.855 513.313C506.855 516.562 509.49 519.197 512.739 519.197Z" fill="#312C2B"/>
</g>
</g>
<defs>
<clipPath id="clip0_104_367">
<rect width="1026" height="1026" fill="white"/>
</clipPath>
</defs>
</svg>
