<svg width="1180" height="1181" viewBox="0 0 1180 1181" fill="none" xmlns="http://www.w3.org/2000/svg">
<g clip-path="url(#clip0_98_92)">
<g opacity="0.12">
<path d="M497.053 590.291C497.053 546.305 538.41 510.647 589.431 510.647C640.444 510.647 681.809 546.304 681.809 590.291C681.809 634.271 640.444 669.934 589.431 669.934C538.41 669.933 497.053 634.271 497.053 590.291Z" stroke="black" stroke-width="10.8837" stroke-miterlimit="10"/>
<path d="M-0.858887 590.294C-0.858887 264.277 263.424 0 589.434 0C915.408 0 1179.72 264.277 1179.72 590.294C1179.72 916.267 915.408 1180.58 589.434 1180.58C263.424 1180.58 -0.858887 916.267 -0.858887 590.294Z" stroke="#D9D1D1" stroke-width="0.7541" stroke-miterlimit="10"/>
<path d="M589.431 491.249C527.964 491.249 478.139 535.591 478.139 590.291C478.139 644.983 527.964 689.331 589.431 689.332C650.889 689.332 700.723 644.983 700.723 590.291C700.723 535.59 650.889 491.249 589.431 491.249Z" stroke="#080808" stroke-width="10.4989"/>
<path d="M589.431 471.831C517.508 471.831 459.206 524.867 459.206 590.291C459.206 655.706 517.508 708.749 589.431 708.75C661.345 708.75 719.657 655.706 719.657 590.291C719.657 524.866 661.345 471.831 589.431 471.831Z" stroke="#111010" stroke-width="10.1137"/>
<path d="M589.432 452.395C507.041 452.395 440.253 514.132 440.253 590.291C440.253 666.44 507.041 728.186 589.432 728.187C671.811 728.187 738.609 666.44 738.609 590.291C738.609 514.132 671.811 452.395 589.432 452.395Z" stroke="#191818" stroke-width="9.72816"/>
<path d="M589.432 432.938C496.564 432.938 421.282 503.387 421.282 590.292C421.282 677.184 496.564 747.642 589.432 747.643C682.287 747.643 757.58 677.184 757.58 590.292C757.58 503.386 682.287 432.938 589.432 432.938Z" stroke="#212020" stroke-width="9.34221"/>
<path d="M589.432 413.462C486.076 413.462 402.292 492.63 402.292 590.291C402.292 687.939 486.076 767.118 589.432 767.118C692.774 767.118 776.57 687.939 776.57 590.291C776.57 492.63 692.774 413.462 589.432 413.462Z" stroke="#292828" stroke-width="8.95587"/>
<path d="M589.432 393.968C475.578 393.968 383.284 481.863 383.284 590.292C383.284 698.705 475.578 786.613 589.432 786.613C703.272 786.613 795.579 698.705 795.579 590.292C795.579 481.863 703.272 393.968 589.432 393.968Z" stroke="#323030" stroke-width="8.56915"/>
<path d="M589.432 374.453C465.069 374.453 364.256 471.086 364.256 590.292C364.256 709.482 465.069 806.127 589.432 806.128C713.779 806.128 814.606 709.482 814.606 590.292C814.606 471.085 713.779 374.453 589.432 374.453Z" stroke="#3A3838" stroke-width="8.18205"/>
<path d="M589.432 354.919C454.55 354.919 345.209 460.297 345.209 590.292C345.209 720.269 454.55 825.661 589.432 825.661C724.297 825.661 833.653 720.269 833.653 590.292C833.653 460.297 724.297 354.919 589.432 354.919Z" stroke="#424040" stroke-width="7.79456"/>
<path d="M589.432 335.366C444.02 335.366 326.144 449.498 326.144 590.292C326.144 731.067 444.02 845.214 589.432 845.214C734.826 845.214 852.718 731.067 852.718 590.292C852.718 449.498 734.826 335.366 589.432 335.366Z" stroke="#4B4848" stroke-width="7.40669"/>
<path d="M589.432 315.794C433.481 315.794 307.06 438.689 307.06 590.292C307.06 741.875 433.481 864.787 589.432 864.787C745.365 864.787 871.803 741.875 871.803 590.292C871.803 438.688 745.365 315.794 589.432 315.794Z" stroke="#535050" stroke-width="7.01844"/>
<path d="M589.432 296.202C422.93 296.202 287.956 427.868 287.956 590.292C287.956 752.694 422.93 884.378 589.432 884.378C755.915 884.378 890.906 752.694 890.906 590.292C890.906 427.867 755.915 296.202 589.432 296.202Z" stroke="#5B5858" stroke-width="6.6298"/>
<path d="M589.432 276.591C412.37 276.591 268.834 417.037 268.834 590.292C268.834 763.525 412.37 903.99 589.432 903.99C766.474 903.99 910.028 763.525 910.028 590.292C910.028 417.036 766.474 276.591 589.432 276.591Z" stroke="#646060" stroke-width="6.24077"/>
<path d="M589.433 256.96C401.798 256.96 249.693 406.195 249.693 590.293C249.693 774.365 401.798 923.62 589.433 923.62C777.045 923.62 929.169 774.365 929.169 590.293C929.169 406.194 777.045 256.96 589.433 256.96Z" stroke="#6C6868" stroke-width="5.85137"/>
<path d="M589.433 237.31C391.217 237.31 230.533 395.342 230.533 590.293C230.533 785.217 391.217 943.27 589.433 943.27C787.626 943.27 948.329 785.217 948.329 590.293C948.329 395.342 787.626 237.31 589.433 237.31Z" stroke="#747070" stroke-width="5.46157"/>
<path d="M589.433 217.641C380.625 217.641 211.354 384.479 211.354 590.293C211.354 796.078 380.625 962.94 589.433 962.939C798.216 962.939 967.508 796.078 967.508 590.293C967.508 384.479 798.216 217.641 589.433 217.641Z" stroke="#7D7878" stroke-width="5.0714"/>
<path d="M589.433 197.952C370.023 197.952 192.157 373.605 192.157 590.293C192.157 806.951 370.023 982.628 589.433 982.628C808.819 982.628 986.706 806.951 986.706 590.293C986.706 373.605 808.819 197.952 589.433 197.952Z" stroke="#858080" stroke-width="4.68084"/>
<path d="M589.433 178.244C359.409 178.244 172.94 362.72 172.94 590.293C172.94 817.835 359.409 1002.34 589.433 1002.34C819.43 1002.34 1005.92 817.835 1005.92 590.293C1005.92 362.72 819.43 178.244 589.433 178.244Z" stroke="#8D8888" stroke-width="4.28989"/>
<path d="M589.433 158.517C348.786 158.517 153.705 351.825 153.705 590.293C153.705 828.729 348.786 1022.06 589.433 1022.06C830.053 1022.06 1025.16 828.729 1025.16 590.293C1025.16 351.825 830.053 158.517 589.433 158.517Z" stroke="#969090" stroke-width="3.89856"/>
<path d="M589.433 138.77C338.152 138.77 134.45 340.919 134.45 590.293C134.45 839.634 338.152 1041.81 589.433 1041.81C840.686 1041.81 1044.41 839.634 1044.41 590.293C1044.41 340.919 840.686 138.77 589.433 138.77Z" stroke="#9E9898" stroke-width="3.50685"/>
<path d="M589.433 119.004C327.508 119.004 115.177 330.002 115.177 590.293C115.177 850.549 327.508 1061.58 589.433 1061.58C851.329 1061.58 1063.68 850.549 1063.68 590.293C1063.68 330.002 851.329 119.004 589.433 119.004Z" stroke="#A7A0A0" stroke-width="3.11475"/>
<path d="M589.433 99.2183C316.853 99.2183 95.8848 319.075 95.8848 590.293C95.8848 861.475 316.853 1081.36 589.433 1081.36C861.983 1081.36 1082.98 861.475 1082.98 590.293C1082.98 319.075 861.983 99.2183 589.433 99.2183Z" stroke="#AFA8A8" stroke-width="2.72227"/>
<path d="M589.433 79.4133C306.188 79.4133 76.5737 308.137 76.5737 590.294C76.5737 872.412 306.188 1101.17 589.433 1101.17C872.647 1101.17 1102.29 872.412 1102.29 590.294C1102.29 308.136 872.647 79.4133 589.433 79.4133Z" stroke="#B7B1B1" stroke-width="2.32941"/>
<path d="M589.434 59.589C295.513 59.589 57.2441 297.188 57.2441 590.294C57.2441 883.36 295.513 1120.99 589.434 1120.99C883.322 1120.99 1121.62 883.36 1121.62 590.294C1121.62 297.188 883.322 59.589 589.434 59.589Z" stroke="#C0B9B9" stroke-width="1.93616"/>
<path d="M589.434 39.7454C284.827 39.7454 37.895 286.228 37.895 590.294C37.895 894.318 284.827 1140.84 589.434 1140.83C894.006 1140.83 1140.97 894.318 1140.97 590.294C1140.97 286.228 894.006 39.7454 589.434 39.7454Z" stroke="#C8C1C1" stroke-width="1.54252"/>
<path d="M589.434 19.8823C274.131 19.8823 18.5273 275.258 18.5273 590.294C18.5273 905.287 274.131 1160.7 589.434 1160.7C904.702 1160.7 1160.33 905.287 1160.33 590.294C1160.33 275.258 904.702 19.8823 589.434 19.8823Z" stroke="#D1C9C9" stroke-width="1.1485"/>
</g>
<g opacity="0.35">
<path d="M527.008 584.763C526.836 585.646 526.633 586.361 526.401 586.906C526.172 587.452 525.866 587.855 525.482 588.114C525.098 588.369 524.592 588.503 523.962 588.514C523.333 588.522 522.534 588.432 521.565 588.243L521.33 588.197C520.53 588.041 519.866 587.871 519.34 587.687C518.81 587.502 518.393 587.281 518.089 587.022C517.784 586.763 517.575 586.452 517.458 586.086C517.343 585.718 517.302 585.275 517.337 584.762C517.368 584.246 517.452 583.635 517.59 582.929L518.052 580.557C518.19 579.851 518.341 579.252 518.505 578.763C518.665 578.274 518.868 577.881 519.112 577.586C519.358 577.288 519.67 577.076 520.049 576.95C520.428 576.824 520.898 576.774 521.458 576.803C522.015 576.829 522.694 576.921 523.494 577.077L523.729 577.122C524.699 577.311 525.473 577.529 526.051 577.776C526.631 578.019 527.051 578.333 527.311 578.717C527.571 579.097 527.704 579.583 527.711 580.176C527.721 580.768 527.641 581.506 527.469 582.389L527.008 584.763ZM526.03 584.574L526.492 582.201C526.601 581.64 526.674 581.164 526.709 580.771C526.744 580.378 526.721 580.05 526.639 579.786C526.556 579.517 526.396 579.295 526.158 579.118C525.921 578.937 525.587 578.781 525.156 578.648C524.725 578.515 524.177 578.384 523.51 578.254L523.275 578.208C522.584 578.073 522.011 577.986 521.554 577.946C521.097 577.906 520.727 577.925 520.443 578.005C520.16 578.08 519.935 578.228 519.77 578.448C519.602 578.664 519.464 578.961 519.359 579.34C519.249 579.717 519.138 580.187 519.029 580.748L518.568 583.12C518.459 583.682 518.384 584.157 518.344 584.549C518.301 584.94 518.316 585.269 518.39 585.535C518.462 585.798 518.615 586.018 518.848 586.198C519.082 586.375 519.419 586.529 519.857 586.664C520.295 586.798 520.86 586.933 521.55 587.066L521.786 587.112C522.452 587.242 523.011 587.327 523.46 587.365C523.907 587.403 524.276 587.386 524.564 587.311C524.852 587.232 525.084 587.086 525.26 586.872C525.437 586.654 525.582 586.356 525.697 585.979C525.809 585.603 525.921 585.134 526.03 584.574Z" fill="#312C2B"/>
<path d="M530.363 570.5L522.446 565.791L526.884 558.328L527.709 558.818L523.858 565.292L526.497 566.861L530.173 560.681L530.998 561.172L527.322 567.352L530.95 569.51L530.363 570.5Z" fill="#312C2B"/>
<path d="M538.9 557.001L532.625 550.258L538.982 544.342L539.636 545.045L534.121 550.176L536.213 552.424L541.477 547.526L542.13 548.228L536.866 553.126L539.742 556.217L538.9 557.001Z" fill="#312C2B"/>
<path d="M550.881 546.718L546.04 538.882L547.019 538.277L551.86 546.114L550.881 546.718Z" fill="#312C2B"/>
<path d="M556.019 538.014L555.937 537.788C555.658 537.021 555.462 536.366 555.348 535.82C555.233 535.27 555.208 534.799 555.274 534.405C555.338 534.011 555.498 533.671 555.751 533.383C556.007 533.094 556.365 532.832 556.824 532.597C557.281 532.358 557.847 532.116 558.524 531.869L560.795 531.042C561.569 530.761 562.234 530.561 562.792 530.443C563.352 530.32 563.832 530.309 564.234 530.409C564.639 530.505 564.992 530.736 565.291 531.103C565.59 531.466 565.864 531.994 566.116 532.685L565.034 533.079C564.836 532.535 564.633 532.13 564.426 531.865C564.218 531.595 563.973 531.436 563.691 531.386C563.413 531.334 563.069 531.366 562.66 531.481C562.249 531.592 561.741 531.758 561.137 531.978L558.866 532.805C558.329 533 557.882 533.182 557.526 533.35C557.169 533.514 556.895 533.697 556.704 533.898C556.516 534.094 556.405 534.338 556.372 534.631C556.342 534.923 556.382 535.291 556.493 535.735C556.604 536.18 556.78 536.733 557.02 537.394L557.102 537.62C557.334 538.259 557.549 538.78 557.748 539.184C557.945 539.588 558.15 539.894 558.363 540.102C558.578 540.309 558.823 540.432 559.097 540.473C559.374 540.512 559.704 540.484 560.087 540.387C560.468 540.29 560.928 540.145 561.465 539.949L563.736 539.123C564.341 538.903 564.838 538.707 565.226 538.536C565.615 538.364 565.901 538.174 566.083 537.962C566.27 537.75 566.357 537.478 566.347 537.146C566.335 536.809 566.232 536.371 566.035 535.83L567.117 535.436C567.369 536.127 567.496 536.707 567.5 537.173C567.504 537.639 567.381 538.037 567.131 538.366C566.883 538.69 566.505 538.983 565.996 539.245C565.49 539.506 564.851 539.776 564.077 540.058L561.806 540.884C560.96 541.192 560.244 541.387 559.658 541.469C559.072 541.554 558.569 541.499 558.148 541.303C557.732 541.106 557.357 540.741 557.022 540.207C556.69 539.673 556.356 538.942 556.019 538.014Z" fill="#312C2B"/>
<path d="M575.566 536.206L574.657 527.04L583.657 526.147L583.751 527.102L575.897 527.88L576.201 530.936L583.725 530.19L583.821 531.145L576.296 531.891L576.618 535.137L584.638 534.342L584.733 535.297L575.566 536.206Z" fill="#312C2B"/>
<path d="M604.032 536.747C603.163 536.516 602.465 536.265 601.936 535.995C601.408 535.729 601.027 535.396 600.794 534.995C600.565 534.595 600.468 534.08 600.499 533.451C600.534 532.823 600.679 532.032 600.934 531.079L600.996 530.847C601.206 530.059 601.421 529.409 601.641 528.897C601.862 528.38 602.112 527.98 602.391 527.695C602.669 527.409 602.995 527.22 603.368 527.13C603.743 527.04 604.187 527.03 604.698 527.101C605.21 527.167 605.813 527.293 606.508 527.479L608.843 528.103C609.539 528.289 610.125 528.48 610.602 528.678C611.08 528.871 611.457 529.101 611.735 529.366C612.016 529.631 612.206 529.957 612.305 530.344C612.404 530.731 612.42 531.202 612.355 531.76C612.29 532.314 612.152 532.985 611.942 533.773L611.88 534.004C611.625 534.958 611.356 535.716 611.068 536.276C610.786 536.838 610.444 537.235 610.042 537.466C609.646 537.699 609.151 537.799 608.561 537.766C607.968 537.736 607.238 537.605 606.369 537.372L604.032 536.747ZM604.289 535.786L606.624 536.409C607.176 536.556 607.647 536.662 608.036 536.724C608.425 536.786 608.754 536.786 609.024 536.721C609.296 536.658 609.53 536.513 609.723 536.286C609.918 536.061 610.099 535.739 610.261 535.319C610.422 534.899 610.59 534.36 610.767 533.704L610.828 533.473C611.01 532.792 611.137 532.227 611.208 531.774C611.279 531.321 611.285 530.951 611.227 530.662C611.17 530.374 611.039 530.14 610.831 529.96C610.627 529.777 610.34 529.62 609.97 529.488C609.601 529.352 609.141 529.211 608.587 529.063L606.253 528.439C605.7 528.292 605.231 528.184 604.842 528.118C604.456 528.049 604.126 528.041 603.856 528.097C603.588 528.15 603.358 528.287 603.163 528.508C602.971 528.73 602.793 529.055 602.629 529.483C602.466 529.911 602.293 530.464 602.111 531.144L602.049 531.376C601.874 532.032 601.752 532.583 601.683 533.028C601.614 533.473 601.606 533.841 601.661 534.133C601.72 534.425 601.849 534.667 602.051 534.858C602.257 535.049 602.543 535.214 602.911 535.354C603.277 535.495 603.737 535.638 604.289 535.786Z" fill="#312C2B"/>
<path d="M617.974 540.782L622.536 532.78L630.08 537.081L629.604 537.914L623.061 534.184L621.54 536.852L627.787 540.413L627.312 541.247L621.065 537.685L618.974 541.353L617.974 540.782Z" fill="#312C2B"/>
<path d="M637.55 554.662L644.491 548.607L645.248 549.474L638.307 555.53L637.55 554.662Z" fill="#312C2B"/>
<path d="M643.41 560.854L651.647 556.731L654.707 562.845C655.11 563.649 655.393 564.334 655.556 564.902C655.718 565.468 655.734 565.966 655.6 566.395C655.471 566.827 655.17 567.231 654.699 567.611C654.229 567.994 653.56 568.402 652.691 568.838L652.476 568.944C651.635 569.365 650.921 569.649 650.333 569.796C649.75 569.944 649.242 569.943 648.811 569.794C648.382 569.646 647.986 569.339 647.619 568.874C647.256 568.408 646.874 567.772 646.472 566.968L643.41 560.854ZM644.816 561.438L647.36 566.522C647.68 567.162 647.967 567.662 648.224 568.021C648.48 568.38 648.76 568.611 649.067 568.712C649.372 568.814 649.752 568.796 650.206 568.657C650.66 568.519 651.245 568.271 651.96 567.914L652.175 567.807C652.769 567.51 653.247 567.244 653.613 567.007C653.977 566.771 654.241 566.538 654.404 566.31C654.572 566.082 654.652 565.832 654.645 565.559C654.643 565.288 654.568 564.969 654.421 564.604C654.275 564.24 654.073 563.801 653.817 563.291L651.272 558.207L644.816 561.438Z" fill="#312C2B"/>
<path d="M651.327 578.296L660.487 577.325L661.439 586.318L660.485 586.419L659.654 578.571L656.6 578.894L657.397 586.414L656.443 586.516L655.646 578.996L652.402 579.34L653.251 587.355L652.297 587.456L651.327 578.296Z" fill="#312C2B"/>
<path d="M652.844 594.833L661.732 597.256L661.416 598.413L651.466 605.291L651.463 605.302L658.98 607.352L658.676 608.462L649.789 606.039L650.105 604.882L660.118 598.022L660.121 598.01L652.542 595.944L652.844 594.833Z" fill="#312C2B"/>
<path d="M644.464 617.077L651.149 621.915L653.849 618.185L654.626 618.747L648.55 627.142L647.773 626.58L650.474 622.85L643.788 618.012L644.464 617.077Z" fill="#312C2B"/>
<path d="M636.193 627.148L642.281 634.06L641.417 634.821L635.329 627.909L636.193 627.148Z" fill="#312C2B"/>
<path d="M629.982 632.746L634.624 640.702L627.123 645.078L626.641 644.249L633.147 640.454L631.599 637.802L625.389 641.424L624.905 640.597L631.116 636.974L628.989 633.327L629.982 632.746Z" fill="#312C2B"/>
<path d="M616.081 640.181L619.203 648.847L618.12 649.237L614.997 640.571L616.081 640.181Z" fill="#312C2B"/>
<path d="M609.339 647.612L609.376 647.849C609.499 648.655 609.564 649.336 609.568 649.894C609.573 650.456 609.506 650.922 609.365 651.296C609.224 651.669 609.001 651.973 608.697 652.205C608.389 652.438 607.987 652.625 607.491 652.767C606.996 652.912 606.392 653.038 605.681 653.148L603.291 653.515C602.478 653.64 601.786 653.704 601.217 653.711C600.644 653.723 600.17 653.64 599.795 653.462C599.417 653.289 599.116 652.994 598.895 652.575C598.673 652.16 598.507 651.589 598.395 650.861L599.534 650.687C599.622 651.26 599.741 651.696 599.892 651.997C600.044 652.301 600.253 652.506 600.52 652.61C600.784 652.715 601.126 652.752 601.55 652.719C601.974 652.691 602.504 652.626 603.141 652.53L605.53 652.163C606.095 652.076 606.569 651.986 606.95 651.892C607.333 651.801 607.638 651.674 607.863 651.515C608.086 651.359 608.243 651.141 608.333 650.86C608.42 650.58 608.452 650.211 608.431 649.753C608.41 649.296 608.344 648.72 608.239 648.024L608.202 647.786C608.099 647.115 607.99 646.561 607.875 646.126C607.759 645.691 607.618 645.351 607.451 645.105C607.28 644.86 607.064 644.691 606.803 644.598C606.538 644.504 606.209 644.467 605.816 644.488C605.422 644.508 604.944 644.561 604.378 644.648L601.989 645.015C601.352 645.112 600.827 645.206 600.413 645.298C599.998 645.391 599.681 645.523 599.46 645.694C599.236 645.866 599.097 646.116 599.042 646.444C598.987 646.776 599.004 647.226 599.091 647.795L597.953 647.971C597.842 647.243 597.829 646.651 597.917 646.193C598.004 645.734 598.203 645.368 598.513 645.093C598.82 644.824 599.247 644.611 599.798 644.453C600.344 644.296 601.025 644.156 601.838 644.031L604.228 643.664C605.117 643.528 605.857 643.477 606.449 643.512C607.04 643.542 607.523 643.696 607.897 643.97C608.266 644.244 608.563 644.675 608.787 645.265C609.005 645.853 609.19 646.636 609.339 647.612Z" fill="#312C2B"/>
<path d="M590.546 645.803L584.219 654.388L582.693 654.224L578.335 644.491L579.671 644.636L580.59 646.858L587.84 647.637L589.211 645.66L590.546 645.803ZM587.165 648.528L581.06 647.872L583.539 653.542L587.165 648.528Z" fill="#312C2B"/>
<path d="M567.354 641.837L564.405 649.544L568.707 651.19L568.364 652.086L558.686 648.383L559.029 647.487L563.331 649.133L566.28 641.426L567.354 641.837Z" fill="#312C2B"/>
<path d="M555.467 636.584L550.584 644.395L549.607 643.785L554.49 635.975L555.467 636.584Z" fill="#312C2B"/>
<path d="M545.392 629.352C546.032 629.984 546.515 630.547 546.84 631.042C547.168 631.535 547.334 632.014 547.337 632.478C547.337 632.938 547.168 633.434 546.829 633.964C546.488 634.492 545.971 635.108 545.276 635.811L545.107 635.982C544.535 636.562 544.026 637.021 543.582 637.357C543.135 637.697 542.719 637.92 542.335 638.031C541.951 638.142 541.575 638.143 541.207 638.038C540.836 637.931 540.445 637.72 540.037 637.406C539.625 637.094 539.163 636.686 538.65 636.18L536.93 634.483C536.418 633.977 536.003 633.52 535.687 633.113C535.369 632.707 535.154 632.322 535.044 631.955C534.931 631.585 534.927 631.208 535.032 630.823C535.137 630.437 535.356 630.019 535.69 629.567C536.02 629.119 536.471 628.604 537.045 628.024L537.213 627.853C537.906 627.15 538.517 626.625 539.043 626.281C539.566 625.932 540.061 625.757 540.523 625.754C540.984 625.748 541.462 625.906 541.96 626.229C542.459 626.547 543.029 627.023 543.67 627.655L545.392 629.352ZM544.692 630.061L542.972 628.363C542.565 627.961 542.208 627.637 541.902 627.39C541.594 627.143 541.308 626.981 541.042 626.904C540.773 626.824 540.498 626.834 540.22 626.935C539.938 627.033 539.622 627.224 539.274 627.508C538.925 627.793 538.512 628.178 538.035 628.661L537.866 628.832C537.372 629.332 536.981 629.763 536.696 630.12C536.41 630.478 536.221 630.797 536.13 631.077C536.035 631.355 536.034 631.624 536.126 631.883C536.213 632.144 536.384 632.421 536.641 632.72C536.894 633.021 537.225 633.372 537.632 633.774L539.351 635.472C539.758 635.873 540.114 636.199 540.417 636.449C540.719 636.701 541.001 636.871 541.265 636.957C541.523 637.043 541.791 637.038 542.071 636.943C542.347 636.845 542.663 636.651 543.017 636.36C543.371 636.069 543.795 635.673 544.29 635.172L544.458 635.001C544.936 634.519 545.314 634.101 545.595 633.747C545.875 633.395 546.064 633.079 546.161 632.798C546.255 632.516 546.263 632.24 546.181 631.976C546.098 631.707 545.931 631.421 545.68 631.119C545.428 630.815 545.1 630.461 544.692 630.061Z" fill="#312C2B"/>
<path d="M534.984 618.873L526.645 622.785L526.136 621.699L529.259 610.013L529.253 610.002L522.2 613.311L521.712 612.268L530.051 608.357L530.56 609.442L527.378 621.156L527.383 621.167L534.495 617.831L534.984 618.873Z" fill="#312C2B"/>
<path d="M589.43 544.668C619.119 544.668 642.236 565.584 642.236 590.29C642.236 614.995 619.12 635.912 589.43 635.912C559.742 635.912 536.624 614.995 536.624 590.29C536.624 565.584 559.741 544.668 589.43 544.668Z" stroke="#312C2B" stroke-width="8"/>
<path d="M589.43 564.393C609.034 564.393 623.579 576.645 623.579 590.29C623.579 603.935 609.034 616.187 589.43 616.187C569.826 616.187 555.282 603.935 555.282 590.29C555.281 576.646 569.825 564.393 589.43 564.393Z" stroke="#312C2B" stroke-width="6"/>
<path d="M589.431 600.516V617.053" stroke="#312C2B" stroke-width="4"/>
<path d="M589.431 596.36C592.783 596.36 595.5 593.643 595.5 590.291C595.5 586.939 592.783 584.222 589.431 584.222C586.079 584.222 583.362 586.939 583.362 590.291C583.362 593.643 586.079 596.36 589.431 596.36Z" fill="#312C2B"/>
</g>
</g>
<defs>
<clipPath id="clip0_98_92">
<rect width="1179.11" height="1180.58" fill="white"/>
</clipPath>
</defs>
</svg>
