<svg width="32" height="32" viewBox="0 0 32 32" fill="none" xmlns="http://www.w3.org/2000/svg">
<style>@media (prefers-color-scheme:dark){path{stroke:#fff} circle{fill:#fff}}</style>
<path d="M16 3.15039C24.3622 3.15039 30.873 9.04142 30.873 16C30.873 22.9586 24.3622 28.8506 16 28.8506C7.63778 28.8506 1.12695 22.9586 1.12695 16C1.12701 9.04142 7.63782 3.15039 16 3.15039Z" stroke="#312B2B" stroke-width="2.25329"/>
<path d="M16.001 9.82251C18.7455 9.8226 21.1925 10.5714 22.9287 11.7366C24.6701 12.9054 25.6191 14.429 25.6191 16.0002C25.6191 17.5715 24.6702 19.0951 22.9287 20.2639C21.1925 21.4291 18.7455 22.1769 16.001 22.177C13.2563 22.177 10.8086 21.4292 9.07227 20.2639C7.33082 19.0951 6.38189 17.5715 6.38184 16.0002C6.38184 14.429 7.33086 12.9054 9.07227 11.7366C10.8086 10.5713 13.2563 9.82251 16.001 9.82251Z" stroke="#312B2B" stroke-width="1.68997"/>
<path d="M16 18.8801L16 22.3358" stroke="#312B2B" stroke-width="1.12665"/>
<circle cx="16.0004" cy="16" r="1.70943" fill="#312B2B"/>
</svg>
